<svg xmlns="http://www.w3.org/2000/svg" viewBox="0 0 120 120"><defs><style>.cls-1{fill:#aa8c82;}.cls-2{fill:#fff;}</style></defs><title>アセット 1</title><g id="レイヤー_2" data-name="レイヤー 2"><g id="アイテム"><circle class="cls-1" cx="60" cy="60" r="60"/><path class="cls-2" d="M35.89,91.52H39.4a1,1,0,0,0,1-1V78.4l9.88,12.84a.86.86,0,0,0,.72.28H55.3a.87.87,0,0,0,.72-1.4L45.38,76.76,53.9,65a.85.85,0,0,0-.64-1.44h-4a1,1,0,0,0-.76.4L40.36,75.33V64.56a1,1,0,0,0-1-1H35.89a.94.94,0,0,0-1,1v26A.94.94,0,0,0,35.89,91.52Z"/><path class="cls-2" d="M63.81,91.52H80.63a.76.76,0,0,0,.76-.76V87.49a.76.76,0,0,0-.76-.76H68.24v-7h7.87a.76.76,0,0,0,.76-.76V75.69a.78.78,0,0,0-.76-.76H68.24V68.39h12.1a.76.76,0,0,0,.76-.76V64.36a.76.76,0,0,0-.76-.76H63.81a.76.76,0,0,0-.76.76v26.4A.76.76,0,0,0,63.81,91.52Z"/><path class="cls-2" d="M87.54,91.52h4.52a.47.47,0,0,0,.47-.46V85.84a.47.47,0,0,0-.47-.46H87.54a.47.47,0,0,0-.47.46v5.22A.47.47,0,0,0,87.54,91.52Z"/><path class="cls-2" d="M45.63,56a14.15,14.15,0,1,1,0-28.31,13.34,13.34,0,0,1,9.52,3.66.89.89,0,0,1,.31.64.88.88,0,0,1-.27.65L52.82,35.1a.76.76,0,0,1-.57.28.85.85,0,0,1-.6-.27,9.07,9.07,0,0,0-5.9-2.26,8.66,8.66,0,0,0-8.55,8.94,8.63,8.63,0,0,0,8.59,8.86,9.19,9.19,0,0,0,5.87-2.19.89.89,0,0,1,.58-.22.81.81,0,0,1,.57.23L55.23,51a.73.73,0,0,1,.24.53,1,1,0,0,1-.28.71A13.45,13.45,0,0,1,45.63,56Z"/><path class="cls-2" d="M85.68,55,73.4,28.16a.68.68,0,0,0-.68-.44h-.4a.72.72,0,0,0-.68.44L59.24,55a.7.7,0,0,0,.68,1H74.36a.59.59,0,0,0,.59-.59v-3.6a.6.6,0,0,0-.59-.59h-8l.14-.32,2-4.43,3.91-8.77h.12l4,8.77,2,4.43,2,4.31a1.14,1.14,0,0,0,1.16.8H85A.7.7,0,0,0,85.68,55Z"/></g></g></svg>